<svg width="24" height="25" viewBox="0 0 24 25" fill="none" xmlns="http://www.w3.org/2000/svg">
<path fill-rule="evenodd" clip-rule="evenodd" d="M8.25 2.09741C7.51349 2.09741 6.81155 2.3837 6.29747 2.88636C5.78414 3.38828 5.5 4.06418 5.5 4.76408C5.5 5.46398 5.78414 6.13988 6.29747 6.64179C6.81155 7.14446 7.51349 7.43074 8.25 7.43074H11V2.09741H8.25ZM13 2.09741V7.43074H15.75C16.1142 7.43074 16.4744 7.36057 16.8097 7.22477C17.145 7.08898 17.4482 6.89052 17.7025 6.64179C17.9569 6.39312 18.1574 6.09912 18.2938 5.77718C18.4301 5.45529 18.5 5.11111 18.5 4.76408C18.5 4.41705 18.4301 4.07286 18.2938 3.75097C18.1574 3.42903 17.9569 3.13504 17.7025 2.88636C17.4482 2.63763 17.145 2.43918 16.8097 2.30339C16.4744 2.16758 16.1142 2.09741 15.75 2.09741H13ZM18.6884 8.43075C18.8324 8.31932 18.9702 8.19952 19.1008 8.07181C19.5429 7.63952 19.8948 7.1251 20.1353 6.55732C20.3759 5.98949 20.5 5.38007 20.5 4.76408C20.5 4.14808 20.3759 3.53867 20.1353 2.97083C19.8948 2.40305 19.5429 1.88863 19.1008 1.45635C18.6587 1.02411 18.1351 0.682396 17.5605 0.449653C16.9858 0.216924 16.3707 0.0974121 15.75 0.0974121H8.25C6.99738 0.0974121 5.79167 0.583743 4.89923 1.45635C4.00603 2.32969 3.5 3.51906 3.5 4.76408C3.5 6.0091 4.00603 7.19846 4.89923 8.07181C5.03021 8.19988 5.16794 8.31963 5.31158 8.43074C5.16794 8.54186 5.03021 8.66161 4.89923 8.78968C4.00603 9.66303 3.5 10.8524 3.5 12.0974C3.5 13.3424 4.00603 14.5318 4.89923 15.4051C5.03022 15.5332 5.16795 15.653 5.31159 15.7641C5.16795 15.8752 5.03022 15.9949 4.89923 16.123C4.00603 16.9964 3.5 18.1857 3.5 19.4307C3.5 20.6758 4.00603 21.8651 4.89923 22.7385C5.79167 23.6111 6.99738 24.0974 8.25 24.0974C9.5026 24.0974 10.7083 23.6111 11.6008 22.7385C12.494 21.8651 13 20.6758 13 19.4307V15.9025C13.2922 16.1063 13.6073 16.2773 13.9395 16.4118C14.5142 16.6446 15.1293 16.7641 15.75 16.7641C16.3707 16.7641 16.9858 16.6446 17.5605 16.4118C18.1351 16.1791 18.6587 15.8374 19.1008 15.4051C19.5429 14.9728 19.8948 14.4584 20.1353 13.8906C20.3759 13.3228 20.5 12.7134 20.5 12.0974C20.5 11.4814 20.3759 10.872 20.1353 10.3042C19.8948 9.73639 19.5429 9.22197 19.1008 8.78968C18.9702 8.66197 18.8324 8.54217 18.6884 8.43075ZM11 14.7641V9.43074H8.25C7.51349 9.43074 6.81155 9.71703 6.29747 10.2197C5.78414 10.7216 5.5 11.3975 5.5 12.0974C5.5 12.7973 5.78414 13.4732 6.29747 13.9751C6.81155 14.4778 7.51349 14.7641 8.25 14.7641H11ZM11 16.7641H8.25C7.51349 16.7641 6.81155 17.0504 6.29747 17.553C5.78414 18.0549 5.5 18.7308 5.5 19.4307C5.5 20.1306 5.78414 20.8065 6.29747 21.3085C6.81155 21.8111 7.51349 22.0974 8.25 22.0974C8.98651 22.0974 9.6884 21.8111 10.2025 21.3085C10.7159 20.8065 11 20.1306 11 19.4307V16.7641ZM15.75 9.43074C15.3858 9.43074 15.0256 9.50091 14.6903 9.63672C14.355 9.77251 14.0518 9.97097 13.7975 10.2197C13.5431 10.4684 13.3426 10.7624 13.2062 11.0843C13.0699 11.4062 13 11.7504 13 12.0974C13 12.4444 13.0699 12.7886 13.2062 13.1105C13.3426 13.4324 13.5431 13.7264 13.7975 13.9751C14.0518 14.2238 14.355 14.4223 14.6903 14.5581C15.0256 14.6939 15.3858 14.7641 15.75 14.7641C16.1142 14.7641 16.4744 14.6939 16.8097 14.5581C17.145 14.4223 17.4482 14.2238 17.7025 13.9751C17.9569 13.7264 18.1574 13.4324 18.2938 13.1105C18.4301 12.7886 18.5 12.4444 18.5 12.0974C18.5 11.7504 18.4301 11.4062 18.2938 11.0843C18.1574 10.7624 17.9569 10.4684 17.7025 10.2197C17.4482 9.97097 17.145 9.77251 16.8097 9.63672C16.4744 9.50091 16.1142 9.43074 15.75 9.43074Z" fill="#98A2B3"/>
</svg>
