<svg width="24" height="25" viewBox="0 0 24 25" fill="none" xmlns="http://www.w3.org/2000/svg">
<g clip-path="url(#clip0_4001_1872)">
<path d="M12 2.25835C15.2063 2.25835 15.5859 2.27241 16.8469 2.32866C18.0188 2.38022 18.6516 2.5771 19.0734 2.74116C19.6313 2.95679 20.0344 3.21929 20.4516 3.63647C20.8734 4.05835 21.1313 4.45679 21.3469 5.0146C21.5109 5.43647 21.7078 6.07397 21.7594 7.24116C21.8156 8.50679 21.8297 8.88647 21.8297 12.088C21.8297 15.2943 21.8156 15.674 21.7594 16.9349C21.7078 18.1068 21.5109 18.7396 21.3469 19.1615C21.1313 19.7193 20.8687 20.1224 20.4516 20.5396C20.0297 20.9615 19.6313 21.2193 19.0734 21.4349C18.6516 21.599 18.0141 21.7958 16.8469 21.8474C15.5813 21.9037 15.2016 21.9177 12 21.9177C8.79375 21.9177 8.41406 21.9037 7.15313 21.8474C5.98125 21.7958 5.34844 21.599 4.92656 21.4349C4.36875 21.2193 3.96563 20.9568 3.54844 20.5396C3.12656 20.1177 2.86875 19.7193 2.65313 19.1615C2.48906 18.7396 2.29219 18.1021 2.24063 16.9349C2.18438 15.6693 2.17031 15.2896 2.17031 12.088C2.17031 8.88179 2.18438 8.5021 2.24063 7.24116C2.29219 6.06929 2.48906 5.43647 2.65313 5.0146C2.86875 4.45679 3.13125 4.05366 3.54844 3.63647C3.97031 3.2146 4.36875 2.95679 4.92656 2.74116C5.34844 2.5771 5.98594 2.38022 7.15313 2.32866C8.41406 2.27241 8.79375 2.25835 12 2.25835ZM12 0.0974121C8.74219 0.0974121 8.33438 0.111475 7.05469 0.167725C5.77969 0.223975 4.90313 0.430225 4.14375 0.725537C3.35156 1.03491 2.68125 1.44272 2.01563 2.11304C1.34531 2.77866 0.9375 3.44898 0.628125 4.23647C0.332812 5.00054 0.126563 5.87241 0.0703125 7.14741C0.0140625 8.43179 0 8.8396 0 12.0974C0 15.3552 0.0140625 15.763 0.0703125 17.0427C0.126563 18.3177 0.332812 19.1943 0.628125 19.9537C0.9375 20.7458 1.34531 21.4162 2.01563 22.0818C2.68125 22.7474 3.35156 23.1599 4.13906 23.4646C4.90313 23.7599 5.775 23.9662 7.05 24.0224C8.32969 24.0787 8.7375 24.0927 11.9953 24.0927C15.2531 24.0927 15.6609 24.0787 16.9406 24.0224C18.2156 23.9662 19.0922 23.7599 19.8516 23.4646C20.6391 23.1599 21.3094 22.7474 21.975 22.0818C22.6406 21.4162 23.0531 20.7459 23.3578 19.9584C23.6531 19.1943 23.8594 18.3224 23.9156 17.0474C23.9719 15.7677 23.9859 15.3599 23.9859 12.1021C23.9859 8.84429 23.9719 8.43647 23.9156 7.15679C23.8594 5.88179 23.6531 5.00522 23.3578 4.24585C23.0625 3.44897 22.6547 2.77866 21.9844 2.11304C21.3188 1.44741 20.6484 1.03491 19.8609 0.730225C19.0969 0.434912 18.225 0.228662 16.95 0.172412C15.6656 0.111475 15.2578 0.0974121 12 0.0974121Z" fill="#98A2B3"/>
<path d="M12 5.93335C8.59688 5.93335 5.83594 8.69429 5.83594 12.0974C5.83594 15.5005 8.59688 18.2615 12 18.2615C15.4031 18.2615 18.1641 15.5005 18.1641 12.0974C18.1641 8.69429 15.4031 5.93335 12 5.93335ZM12 16.0958C9.79219 16.0958 8.00156 14.3052 8.00156 12.0974C8.00156 9.8896 9.79219 8.09897 12 8.09897C14.2078 8.09897 15.9984 9.8896 15.9984 12.0974C15.9984 14.3052 14.2078 16.0958 12 16.0958Z" fill="#98A2B3"/>
<path d="M19.8469 5.68955C19.8469 6.48643 19.2 7.12862 18.4078 7.12862C17.6109 7.12862 16.9688 6.48174 16.9688 5.68955C16.9688 4.89268 17.6156 4.25049 18.4078 4.25049C19.2 4.25049 19.8469 4.89736 19.8469 5.68955Z" fill="#98A2B3"/>
</g>
<defs>
<clipPath id="clip0_4001_1872">
<rect width="24" height="24" fill="white" transform="translate(0 0.0974121)"/>
</clipPath>
</defs>
</svg>
