<svg width="24" height="25" viewBox="0 0 24 25" fill="none" xmlns="http://www.w3.org/2000/svg">
<g clip-path="url(#clip0_4001_1869)">
<path d="M22.2234 0.0974121H1.77187C0.792187 0.0974121 0 0.87085 0 1.8271V22.363C0 23.3193 0.792187 24.0974 1.77187 24.0974H22.2234C23.2031 24.0974 24 23.3193 24 22.3677V1.8271C24 0.87085 23.2031 0.0974121 22.2234 0.0974121ZM7.12031 20.549H3.55781V9.09272H7.12031V20.549ZM5.33906 7.53179C4.19531 7.53179 3.27188 6.60835 3.27188 5.46929C3.27188 4.33022 4.19531 3.40679 5.33906 3.40679C6.47813 3.40679 7.40156 4.33022 7.40156 5.46929C7.40156 6.60366 6.47813 7.53179 5.33906 7.53179ZM20.4516 20.549H16.8937V14.9802C16.8937 13.6537 16.8703 11.9427 15.0422 11.9427C13.1906 11.9427 12.9094 13.3912 12.9094 14.8865V20.549H9.35625V9.09272H12.7687V10.6583H12.8156C13.2891 9.75835 14.4516 8.80679 16.1813 8.80679C19.7859 8.80679 20.4516 11.1787 20.4516 14.263V20.549Z" fill="#98A2B3"/>
</g>
<defs>
<clipPath id="clip0_4001_1869">
<rect width="24" height="24" fill="white" transform="translate(0 0.0974121)"/>
</clipPath>
</defs>
</svg>
