<svg width="24" height="25" viewBox="0 0 24 25" fill="none" xmlns="http://www.w3.org/2000/svg">
<path d="M7.55016 21.8474C16.6045 21.8474 21.5583 14.3441 21.5583 7.83927C21.5583 7.62834 21.5536 7.41271 21.5442 7.20177C22.5079 6.50487 23.3395 5.64167 24 4.65271C23.1025 5.05201 22.1496 5.31279 21.1739 5.42615C22.2013 4.81032 22.9705 3.84288 23.3391 2.70318C22.3726 3.27597 21.3156 3.68002 20.2134 3.89802C19.4708 3.10897 18.489 2.58653 17.4197 2.41146C16.3504 2.2364 15.2532 2.41846 14.2977 2.92951C13.3423 3.44055 12.5818 4.25212 12.1338 5.23872C11.6859 6.22533 11.5754 7.33203 11.8195 8.38771C9.86249 8.2895 7.94794 7.78112 6.19998 6.89551C4.45203 6.0099 2.90969 4.76685 1.67297 3.24693C1.0444 4.33066 0.852057 5.61306 1.13503 6.8335C1.418 8.05395 2.15506 9.12086 3.19641 9.8174C2.41463 9.79258 1.64998 9.58209 0.965625 9.20333V9.26427C0.964925 10.4016 1.3581 11.504 2.07831 12.3842C2.79852 13.2644 3.80132 13.868 4.91625 14.0924C4.19206 14.2905 3.43198 14.3194 2.69484 14.1768C3.00945 15.1548 3.62157 16.0103 4.44577 16.6237C5.26997 17.2372 6.26512 17.578 7.29234 17.5986C5.54842 18.9685 3.39417 19.7115 1.17656 19.708C0.783287 19.7074 0.390399 19.6833 0 19.6358C2.25286 21.0812 4.87353 21.8488 7.55016 21.8474Z" fill="#98A2B3"/>
</svg>
